<?xml version="1.0" encoding="UTF-8"?>
<!DOCTYPE svg PUBLIC "-//W3C//DTD SVG 1.1//EN" "http://www.w3.org/Graphics/SVG/1.1/DTD/svg11.dtd">
<!-- Creator: CorelDRAW X5 -->
<svg xmlns="http://www.w3.org/2000/svg" xml:space="preserve" width="2480px" height="3508px" style="shape-rendering:geometricPrecision; text-rendering:geometricPrecision; image-rendering:optimizeQuality; fill-rule:evenodd; clip-rule:evenodd"
viewBox="0 0 2480 3507"
 xmlns:xlink="http://www.w3.org/1999/xlink">
 <defs>
  <style type="text/css">
   <![CDATA[
    .fil0 {fill:#008DD2}
   ]]>
  </style>
 </defs>
 <g id="Слой_x0020_1">
  <metadata id="CorelCorpID_0Corel-Layer"/>
  <g id="_217146968">
   <path class="fil0" d="M415 530c0,1 1,7 3,10 1,2 4,5 6,7 2,2 6,4 9,4 2,0 11,1 11,2l32 0 0 -61 4 0 9 0c6,0 12,2 14,6 3,6 2,9 2,17l0 38 16 0c0,-16 0,-33 0,-49 0,-8 -3,-14 -6,-18 -2,-2 -5,-4 -8,-5 -2,-1 -10,-2 -10,-2l-36 0 0 61 -14 0c-6,0 -11,-2 -14,-6 -3,-4 -2,-11 -2,-17l0 -38 -16 0 0 52z"/>
   <path class="fil0" d="M582 552c1,-1 4,-1 5,-1 2,0 3,-1 4,-2 3,-1 5,-2 8,-5 3,-3 8,-10 8,-16l0 -4c0,-8 -11,-17 -16,-22 -3,-3 -6,-7 -8,-11 -3,-5 -3,-8 -3,-16l-16 0c0,15 3,20 11,28 3,3 6,6 10,10 3,3 7,7 7,12 0,5 -5,11 -10,11l-31 0 0 -41 -16 0 0 55 47 0z"/>
   <path class="fil0" d="M840 514l12 0c6,0 6,12 0,12l-12 0 0 -12zm26 38l-9 0c0,-8 -1,-18 -10,-18l-7 0 0 18 -9 0 0 -47 22 0c8,0 12,6 12,14l0 1c0,2 -1,6 -2,7 -1,3 -4,3 -5,4 7,2 6,13 8,20z"/>
   <path class="fil0" d="M879 526c0,-6 3,-13 8,-13l4 0c5,0 8,8 8,13l0 1c0,8 -1,17 -10,17 -9,0 -9,-9 -9,-17l0 -1zm14 26l-7 0c-1,-1 -5,-1 -7,-2 -3,-1 -3,-2 -5,-4 -2,-3 -4,-9 -4,-14l0 -4c0,-14 5,-23 20,-23 12,0 17,11 17,23l0 4c0,6 -2,10 -4,14 -1,2 -2,3 -4,5 -1,1 -2,1 -3,2 -1,0 -3,0 -4,1z"/>
   <path class="fil0" d="M617 552l5 0 0 -37 11 0c7,0 8,3 8,10l0 28 5 0 4 0c0,-10 0,-20 0,-29 0,-10 -3,-17 -13,-17l-23 0 0 46 5 0z"/>
   <path class="fil0" d="M801 514l12 0c4,0 5,3 5,6 0,3 -1,7 -5,7l-12 0 0 -13zm0 38l-8 0 0 -47 22 0c7,0 12,8 12,14 0,8 -4,16 -11,16l-15 0 0 16z"/>
   <polygon class="fil0" points="986,552 986,529 999,552 1010,552 995,528 1011,505 1000,505 986,528 986,505 977,505 977,552 "/>
   <path class="fil0" d="M971 552l0 -9 -12 0c-5,0 -9,-4 -9,-9l0 -1 21 0 0 -8 -21 0 0 -2c0,-5 2,-9 8,-9l14 0 0 -9 -16 0c-10,0 -16,15 -15,25 1,6 2,12 4,15 2,2 3,3 5,5 2,1 8,1 8,2l13 0z"/>
   <path class="fil0" d="M787 552l0 -9 -12 0c-6,0 -9,-5 -9,-11l21 0 0 -8 -21 0c0,-5 1,-11 7,-11l14 0 0 -9 -16 0c-10,0 -15,12 -15,22 0,6 1,13 4,18 1,1 4,5 6,5 2,1 8,1 9,2l12 0z"/>
   <path class="fil0" d="M683 552l0 -9 -12 0c-6,0 -9,-4 -9,-11l21 0 0 -8 -21 0c0,-5 1,-11 7,-11l14 0 0 -9 -16 0c-10,0 -15,12 -15,22 0,6 1,13 4,18 1,1 4,5 6,5 2,1 8,1 9,2l12 0z"/>
   <path class="fil0" d="M697 552l0 -19 22 0 0 -9 -22 0 0 -4c0,-2 3,-6 6,-6l17 0 0 -9 -16 0c-11,0 -14,7 -15,16 -1,8 0,22 0,31l8 0z"/>
   <polygon class="fil0" points="1033,552 1033,514 1045,514 1045,505 1013,505 1013,514 1024,514 1024,552 "/>
   <polygon class="fil0" points="742,552 742,514 754,514 754,505 721,505 721,514 733,514 733,552 "/>
   <path class="fil0" d="M920 552c3,-2 9,1 13,-7 2,-4 2,-12 2,-18l0 -22 -9 0 0 29c0,7 -1,9 -8,9l-10 0 0 9 11 0z"/>
   <polygon class="fil0" points="535,478 535,491 551,491 551,478 "/>
  </g>
 </g>
</svg>
